<?xml version="1.0" standalone="no"?><!DOCTYPE svg PUBLIC "-//W3C//DTD SVG 1.1//EN" "http://www.w3.org/Graphics/SVG/1.1/DTD/svg11.dtd"><svg class="icon" width="200px" height="200.00px" viewBox="0 0 1024 1024" version="1.1" xmlns="http://www.w3.org/2000/svg"><path d="M220.273778 198.542222h585.159111c26.965333 0 48.753778 21.902222 48.753778 48.810667v195.072a48.753778 48.753778 0 0 1-48.753778 48.753778H220.273778a48.753778 48.753778 0 0 1-48.753778-48.753778V247.352889c0-26.908444 21.845333-48.753778 48.753778-48.753778z m73.159111 97.564445a24.405333 24.405333 0 0 0 0 48.753777H439.751111a24.405333 24.405333 0 0 0 0-48.753777H293.432889zM220.273778 548.579556h585.159111c26.965333 0 48.753778 21.788444 48.753778 48.753777v195.015111a48.753778 48.753778 0 0 1-48.753778 48.810667H220.273778a48.753778 48.753778 0 0 1-48.753778-48.810667V597.333333a48.753778 48.753778 0 0 1 48.753778-48.753777z m73.159111 97.507555a24.405333 24.405333 0 0 0 0 48.753778H439.751111a24.405333 24.405333 0 0 0 0-48.753778H293.432889z" fill="#707070" /></svg>