<?xml version="1.0" standalone="no"?><!DOCTYPE svg PUBLIC "-//W3C//DTD SVG 1.1//EN" "http://www.w3.org/Graphics/SVG/1.1/DTD/svg11.dtd"><svg t="1688647390312" class="icon" viewBox="0 0 1024 1024" version="1.1" xmlns="http://www.w3.org/2000/svg" p-id="3235" xmlns:xlink="http://www.w3.org/1999/xlink" width="200" height="200"><path d="M510.82064 911.283846 510.819616 911.283846 510.816546 911.283846Z" fill="#707070" p-id="3236"></path><path d="M896.077004 161.163563 125.555066 161.163563c-33.540907 0-60.830437 27.366278-60.830437 61.010539l0 488.060775c0 33.643238 27.28953 61.010539 60.830437 61.010539l266.25097 0 78.730109 118.430296c9.009188 13.521968 24.053835 21.605064 40.283472 21.606087 16.219403-0.001023 31.268144-8.080026 40.257889-21.606087l78.749552-118.430296 266.25097 0c33.540907 0 60.829414-27.367301 60.829414-61.010539L956.907441 222.174102C956.906417 188.530864 929.617911 161.163563 896.077004 161.163563zM249.125429 537.284873c-39.802518 0-72.048943-32.275077-72.048943-72.048943 0-39.780005 32.247448-72.049966 72.048943-72.049966 39.802518 0 72.049966 32.269961 72.049966 72.049966C321.175395 505.009795 288.921807 537.284873 249.125429 537.284873zM513.31546 537.284873c-39.810704 0-72.058153-32.275077-72.058153-72.048943 0-39.780005 32.248472-72.049966 72.058153-72.049966 39.797401 0 72.042803 32.269961 72.042803 72.049966C585.358263 505.009795 553.112861 537.284873 513.31546 537.284873zM777.496282 537.284873c-39.802518 0-72.048943-32.275077-72.048943-72.048943 0-39.780005 32.247448-72.049966 72.048943-72.049966 39.797401 0 72.049966 32.269961 72.049966 72.049966C849.546248 505.009795 817.293683 537.284873 777.496282 537.284873z" fill="#707070" p-id="3237"></path></svg>