<?xml version="1.0" standalone="no"?><!DOCTYPE svg PUBLIC "-//W3C//DTD SVG 1.1//EN" "http://www.w3.org/Graphics/SVG/1.1/DTD/svg11.dtd"><svg t="1688608916905" class="icon" viewBox="0 0 1024 1024" version="1.1" xmlns="http://www.w3.org/2000/svg" p-id="5114" xmlns:xlink="http://www.w3.org/1999/xlink" width="200" height="200"><path d="M509.80864 742.4m32.91136 0l98.74432 0q32.91136 0 32.91136 32.91136l0 0.01024q0 32.91136-32.91136 32.91136l-98.74432 0q-32.91136 0-32.91136-32.91136l0-0.01024q0-32.91136 32.91136-32.91136Z" fill="#000000" p-id="5115"></path><path d="M773.12 643.65568c90.89024 0 164.56704 73.68704 164.56704 164.57728S864.01024 972.8 773.12 972.8H246.48704C155.5968 972.8 81.92 899.1232 81.92 808.23296c0-90.89024 73.6768-164.57728 164.56704-164.57728H773.12z m0 65.83296H246.48704a98.74432 98.74432 0 0 0-98.73408 98.74432c0 52.5824 41.10336 95.56992 92.93824 98.57024l5.79584 0.16384H773.12a98.74432 98.74432 0 0 0 98.74432-98.73408c0-52.59264-41.1136-95.58016-92.93824-98.58048l-5.80608-0.16384zM509.80864 51.2C655.22688 51.2 773.12 169.09312 773.12 314.51136c0 145.42848-117.89312 263.3216-263.31136 263.3216-145.42848 0-263.3216-117.89312-263.3216-263.3216C246.48704 169.09312 364.38016 51.2 509.80864 51.2z m0 65.83296c-109.06624 0-197.48864 88.41216-197.48864 197.4784S400.7424 512 509.80864 512c109.056 0 197.4784-88.4224 197.4784-197.48864 0-109.056-88.41216-197.4784-197.4784-197.4784z" fill="#000000" p-id="5116"></path></svg>